<svg width="319" height="75" viewBox="0 0 319 75" fill="none" xmlns="http://www.w3.org/2000/svg">
<g clip-path="url(#paint0_angular_3572_320254_clip_path)" data-figma-skip-parse="true"><g transform="matrix(0.0345 0.0325 -0.0354276 0.0376078 42 44.3725)"><foreignObject x="-1311.37" y="-1311.37" width="2622.75" height="2622.75"><div xmlns="http://www.w3.org/1999/xhtml" style="background:conic-gradient(from 90deg,rgba(108, 70, 206, 1) 0deg,rgba(105, 71, 209, 1) 1.14453deg,rgba(245, 0, 102, 1) 171.462deg,rgba(255, 187, 51, 1) 240.826deg,rgba(245, 0, 91, 1) 299.259deg,rgba(108, 70, 206, 1) 360deg);height:100%;width:100%;opacity:1"></div></foreignObject></g></g><path d="M55.56 74H20.35C20.35 73.93 20.37 73.86 20.38 73.8C22.09 64.1 31.34 57.62 41.05 59.33C48.71 60.68 54.37 66.73 55.56 74ZM77.81 57.61C76.69 56.94 75.54 56.27 74.39 55.63C75.08 61.32 75.44 67.46 75.28 74H66.57C66.8 65.42 66.07 57.58 64.84 50.62C63.99 50.24 63.14 49.87 62.28 49.53C53.02 45.72 43.16 43.12 33.13 42.51C29.32 42.26 25.47 42.16 21.66 42.39C16.67 50.93 12 61.45 8.93 74H0C2.62 62.49 6.51 52.53 10.85 44.05C8.28 44.67 5.74 45.43 3.23 46.35C5.55 41.89 9.8 39.24 14.44 37.53C18.65 30.39 23.06 24.54 27.02 19.96C38.05 7.17002 47.88 1.23002 48.29 0.990017C50.14 -0.119983 52.53 0.300017 53.9 1.98002C54.2 2.35002 61.41 11.3 67.41 27.08C69.48 32.52 71.54 39.22 73.04 46.97C75.62 49.11 77.87 51.65 79.2 54.77C79.78 56.13 80.2 57.57 80.26 59.07C79.38 58.57 78.6 58.07 77.81 57.61ZM62.63 40.59C61.62 36.86 60.51 33.48 59.4 30.51C55.91 21.22 51.92 14.44 49.47 10.73C45.9 13.38 39.83 18.38 33.37 25.92C31.19 28.46 28.86 31.43 26.51 34.81C36.21 33.82 46.08 35.25 55.42 37.91C57.88 38.64 60.29 39.53 62.63 40.58V40.59Z" data-figma-gradient-fill="{&#34;type&#34;:&#34;GRADIENT_ANGULAR&#34;,&#34;stops&#34;:[{&#34;color&#34;:{&#34;r&#34;:0.41499996185302734,&#34;g&#34;:0.27999997138977051,&#34;b&#34;:0.81999999284744263,&#34;a&#34;:1.0},&#34;position&#34;:0.0031792547088116407},{&#34;color&#34;:{&#34;r&#34;:0.96078431606292725,&#34;g&#34;:0.0,&#34;b&#34;:0.40032678842544556,&#34;a&#34;:1.0},&#34;position&#34;:0.47628453373908997},{&#34;color&#34;:{&#34;r&#34;:1.0,&#34;g&#34;:0.73333334922790527,&#34;b&#34;:0.20000000298023224,&#34;a&#34;:1.0},&#34;position&#34;:0.66896033287048340},{&#34;color&#34;:{&#34;r&#34;:0.96078437566757202,&#34;g&#34;:0.0,&#34;b&#34;:0.35842731595039368,&#34;a&#34;:1.0},&#34;position&#34;:0.83127593994140625}],&#34;stopsVar&#34;:[],&#34;transform&#34;:{&#34;m00&#34;:69.0,&#34;m01&#34;:-70.855293273925781,&#34;m02&#34;:42.927650451660156,&#34;m10&#34;:64.999992370605469,&#34;m11&#34;:75.215629577636719,&#34;m12&#34;:-25.735307693481445},&#34;opacity&#34;:1.0,&#34;blendMode&#34;:&#34;NORMAL&#34;,&#34;visible&#34;:true}"/>
<path d="M55.56 74H20.35C20.35 73.93 20.37 73.86 20.38 73.8C22.09 64.1 31.34 57.62 41.05 59.33C48.71 60.68 54.37 66.73 55.56 74ZM77.81 57.61C76.69 56.94 75.54 56.27 74.39 55.63C75.08 61.32 75.44 67.46 75.28 74H66.57C66.8 65.42 66.07 57.58 64.84 50.62C63.99 50.24 63.14 49.87 62.28 49.53C53.02 45.72 43.16 43.12 33.13 42.51C29.32 42.26 25.47 42.16 21.66 42.39C16.67 50.93 12 61.45 8.93 74H0C2.62 62.49 6.51 52.53 10.85 44.05C8.28 44.67 5.74 45.43 3.23 46.35C5.55 41.89 9.8 39.24 14.44 37.53C18.65 30.39 23.06 24.54 27.02 19.96C38.05 7.17002 47.88 1.23002 48.29 0.990017C50.14 -0.119983 52.53 0.300017 53.9 1.98002C54.2 2.35002 61.41 11.3 67.41 27.08C69.48 32.52 71.54 39.22 73.04 46.97C75.62 49.11 77.87 51.65 79.2 54.77C79.78 56.13 80.2 57.57 80.26 59.07C79.38 58.57 78.6 58.07 77.81 57.61ZM62.63 40.59C61.62 36.86 60.51 33.48 59.4 30.51C55.91 21.22 51.92 14.44 49.47 10.73C45.9 13.38 39.83 18.38 33.37 25.92C31.19 28.46 28.86 31.43 26.51 34.81C36.21 33.82 46.08 35.25 55.42 37.91C57.88 38.64 60.29 39.53 62.63 40.58V40.59Z" fill="url(#paint1_radial_3572_320254)"/>
<path d="M55.56 74H20.35C20.35 73.93 20.37 73.86 20.38 73.8C22.09 64.1 31.34 57.62 41.05 59.33C48.71 60.68 54.37 66.73 55.56 74ZM77.81 57.61C76.69 56.94 75.54 56.27 74.39 55.63C75.08 61.32 75.44 67.46 75.28 74H66.57C66.8 65.42 66.07 57.58 64.84 50.62C63.99 50.24 63.14 49.87 62.28 49.53C53.02 45.72 43.16 43.12 33.13 42.51C29.32 42.26 25.47 42.16 21.66 42.39C16.67 50.93 12 61.45 8.93 74H0C2.62 62.49 6.51 52.53 10.85 44.05C8.28 44.67 5.74 45.43 3.23 46.35C5.55 41.89 9.8 39.24 14.44 37.53C18.65 30.39 23.06 24.54 27.02 19.96C38.05 7.17002 47.88 1.23002 48.29 0.990017C50.14 -0.119983 52.53 0.300017 53.9 1.98002C54.2 2.35002 61.41 11.3 67.41 27.08C69.48 32.52 71.54 39.22 73.04 46.97C75.62 49.11 77.87 51.65 79.2 54.77C79.78 56.13 80.2 57.57 80.26 59.07C79.38 58.57 78.6 58.07 77.81 57.61ZM62.63 40.59C61.62 36.86 60.51 33.48 59.4 30.51C55.91 21.22 51.92 14.44 49.47 10.73C45.9 13.38 39.83 18.38 33.37 25.92C31.19 28.46 28.86 31.43 26.51 34.81C36.21 33.82 46.08 35.25 55.42 37.91C57.88 38.64 60.29 39.53 62.63 40.58V40.59Z" fill="url(#paint2_radial_3572_320254)"/>
<path d="M55.56 74H20.35C20.35 73.93 20.37 73.86 20.38 73.8C22.09 64.1 31.34 57.62 41.05 59.33C48.71 60.68 54.37 66.73 55.56 74ZM77.81 57.61C76.69 56.94 75.54 56.27 74.39 55.63C75.08 61.32 75.44 67.46 75.28 74H66.57C66.8 65.42 66.07 57.58 64.84 50.62C63.99 50.24 63.14 49.87 62.28 49.53C53.02 45.72 43.16 43.12 33.13 42.51C29.32 42.26 25.47 42.16 21.66 42.39C16.67 50.93 12 61.45 8.93 74H0C2.62 62.49 6.51 52.53 10.85 44.05C8.28 44.67 5.74 45.43 3.23 46.35C5.55 41.89 9.8 39.24 14.44 37.53C18.65 30.39 23.06 24.54 27.02 19.96C38.05 7.17002 47.88 1.23002 48.29 0.990017C50.14 -0.119983 52.53 0.300017 53.9 1.98002C54.2 2.35002 61.41 11.3 67.41 27.08C69.48 32.52 71.54 39.22 73.04 46.97C75.62 49.11 77.87 51.65 79.2 54.77C79.78 56.13 80.2 57.57 80.26 59.07C79.38 58.57 78.6 58.07 77.81 57.61ZM62.63 40.59C61.62 36.86 60.51 33.48 59.4 30.51C55.91 21.22 51.92 14.44 49.47 10.73C45.9 13.38 39.83 18.38 33.37 25.92C31.19 28.46 28.86 31.43 26.51 34.81C36.21 33.82 46.08 35.25 55.42 37.91C57.88 38.64 60.29 39.53 62.63 40.58V40.59Z" fill="url(#paint3_radial_3572_320254)"/>
<path d="M55.56 74H20.35C20.35 73.93 20.37 73.86 20.38 73.8C22.09 64.1 31.34 57.62 41.05 59.33C48.71 60.68 54.37 66.73 55.56 74ZM77.81 57.61C76.69 56.94 75.54 56.27 74.39 55.63C75.08 61.32 75.44 67.46 75.28 74H66.57C66.8 65.42 66.07 57.58 64.84 50.62C63.99 50.24 63.14 49.87 62.28 49.53C53.02 45.72 43.16 43.12 33.13 42.51C29.32 42.26 25.47 42.16 21.66 42.39C16.67 50.93 12 61.45 8.93 74H0C2.62 62.49 6.51 52.53 10.85 44.05C8.28 44.67 5.74 45.43 3.23 46.35C5.55 41.89 9.8 39.24 14.44 37.53C18.65 30.39 23.06 24.54 27.02 19.96C38.05 7.17002 47.88 1.23002 48.29 0.990017C50.14 -0.119983 52.53 0.300017 53.9 1.98002C54.2 2.35002 61.41 11.3 67.41 27.08C69.48 32.52 71.54 39.22 73.04 46.97C75.62 49.11 77.87 51.65 79.2 54.77C79.78 56.13 80.2 57.57 80.26 59.07C79.38 58.57 78.6 58.07 77.81 57.61ZM62.63 40.59C61.62 36.86 60.51 33.48 59.4 30.51C55.91 21.22 51.92 14.44 49.47 10.73C45.9 13.38 39.83 18.38 33.37 25.92C31.19 28.46 28.86 31.43 26.51 34.81C36.21 33.82 46.08 35.25 55.42 37.91C57.88 38.64 60.29 39.53 62.63 40.58V40.59Z" fill="url(#paint4_radial_3572_320254)"/>
<path d="M55.56 74H20.35C20.35 73.93 20.37 73.86 20.38 73.8C22.09 64.1 31.34 57.62 41.05 59.33C48.71 60.68 54.37 66.73 55.56 74ZM77.81 57.61C76.69 56.94 75.54 56.27 74.39 55.63C75.08 61.32 75.44 67.46 75.28 74H66.57C66.8 65.42 66.07 57.58 64.84 50.62C63.99 50.24 63.14 49.87 62.28 49.53C53.02 45.72 43.16 43.12 33.13 42.51C29.32 42.26 25.47 42.16 21.66 42.39C16.67 50.93 12 61.45 8.93 74H0C2.62 62.49 6.51 52.53 10.85 44.05C8.28 44.67 5.74 45.43 3.23 46.35C5.55 41.89 9.8 39.24 14.44 37.53C18.65 30.39 23.06 24.54 27.02 19.96C38.05 7.17002 47.88 1.23002 48.29 0.990017C50.14 -0.119983 52.53 0.300017 53.9 1.98002C54.2 2.35002 61.41 11.3 67.41 27.08C69.48 32.52 71.54 39.22 73.04 46.97C75.62 49.11 77.87 51.65 79.2 54.77C79.78 56.13 80.2 57.57 80.26 59.07C79.38 58.57 78.6 58.07 77.81 57.61ZM62.63 40.59C61.62 36.86 60.51 33.48 59.4 30.51C55.91 21.22 51.92 14.44 49.47 10.73C45.9 13.38 39.83 18.38 33.37 25.92C31.19 28.46 28.86 31.43 26.51 34.81C36.21 33.82 46.08 35.25 55.42 37.91C57.88 38.64 60.29 39.53 62.63 40.58V40.59Z" fill="url(#paint5_radial_3572_320254)" fill-opacity="0.75"/>
<path d="M55.56 74H20.35C20.35 73.93 20.37 73.86 20.38 73.8C22.09 64.1 31.34 57.62 41.05 59.33C48.71 60.68 54.37 66.73 55.56 74ZM77.81 57.61C76.69 56.94 75.54 56.27 74.39 55.63C75.08 61.32 75.44 67.46 75.28 74H66.57C66.8 65.42 66.07 57.58 64.84 50.62C63.99 50.24 63.14 49.87 62.28 49.53C53.02 45.72 43.16 43.12 33.13 42.51C29.32 42.26 25.47 42.16 21.66 42.39C16.67 50.93 12 61.45 8.93 74H0C2.62 62.49 6.51 52.53 10.85 44.05C8.28 44.67 5.74 45.43 3.23 46.35C5.55 41.89 9.8 39.24 14.44 37.53C18.65 30.39 23.06 24.54 27.02 19.96C38.05 7.17002 47.88 1.23002 48.29 0.990017C50.14 -0.119983 52.53 0.300017 53.9 1.98002C54.2 2.35002 61.41 11.3 67.41 27.08C69.48 32.52 71.54 39.22 73.04 46.97C75.62 49.11 77.87 51.65 79.2 54.77C79.78 56.13 80.2 57.57 80.26 59.07C79.38 58.57 78.6 58.07 77.81 57.61ZM62.63 40.59C61.62 36.86 60.51 33.48 59.4 30.51C55.91 21.22 51.92 14.44 49.47 10.73C45.9 13.38 39.83 18.38 33.37 25.92C31.19 28.46 28.86 31.43 26.51 34.81C36.21 33.82 46.08 35.25 55.42 37.91C57.88 38.64 60.29 39.53 62.63 40.58V40.59Z" fill="url(#paint6_radial_3572_320254)"/>
<path d="M55.56 74H20.35C20.35 73.93 20.37 73.86 20.38 73.8C22.09 64.1 31.34 57.62 41.05 59.33C48.71 60.68 54.37 66.73 55.56 74ZM77.81 57.61C76.69 56.94 75.54 56.27 74.39 55.63C75.08 61.32 75.44 67.46 75.28 74H66.57C66.8 65.42 66.07 57.58 64.84 50.62C63.99 50.24 63.14 49.87 62.28 49.53C53.02 45.72 43.16 43.12 33.13 42.51C29.32 42.26 25.47 42.16 21.66 42.39C16.67 50.93 12 61.45 8.93 74H0C2.62 62.49 6.51 52.53 10.85 44.05C8.28 44.67 5.74 45.43 3.23 46.35C5.55 41.89 9.8 39.24 14.44 37.53C18.65 30.39 23.06 24.54 27.02 19.96C38.05 7.17002 47.88 1.23002 48.29 0.990017C50.14 -0.119983 52.53 0.300017 53.9 1.98002C54.2 2.35002 61.41 11.3 67.41 27.08C69.48 32.52 71.54 39.22 73.04 46.97C75.62 49.11 77.87 51.65 79.2 54.77C79.78 56.13 80.2 57.57 80.26 59.07C79.38 58.57 78.6 58.07 77.81 57.61ZM62.63 40.59C61.62 36.86 60.51 33.48 59.4 30.51C55.91 21.22 51.92 14.44 49.47 10.73C45.9 13.38 39.83 18.38 33.37 25.92C31.19 28.46 28.86 31.43 26.51 34.81C36.21 33.82 46.08 35.25 55.42 37.91C57.88 38.64 60.29 39.53 62.63 40.58V40.59Z" fill="url(#paint7_radial_3572_320254)"/>
<path d="M100.26 74V32.11H118.786C120.713 32.11 122.483 32.5033 124.096 33.29C125.748 34.0767 127.164 35.1387 128.344 36.476C129.563 37.8133 130.487 39.308 131.117 40.96C131.785 42.612 132.12 44.3033 132.12 46.034C132.12 47.804 131.805 49.515 131.176 51.167C130.586 52.7797 129.72 54.1957 128.58 55.415C127.439 56.6343 126.102 57.5783 124.568 58.247L134.126 74H125.158L116.544 59.958H108.402V74H100.26ZM108.402 52.819H118.609C119.631 52.819 120.536 52.524 121.323 51.934C122.109 51.3047 122.739 50.4787 123.211 49.456C123.683 48.4333 123.919 47.2927 123.919 46.034C123.919 44.6967 123.643 43.5363 123.093 42.553C122.542 41.5303 121.834 40.724 120.969 40.134C120.143 39.544 119.238 39.249 118.255 39.249H108.402V52.819Z" fill="#010119"/>
<path d="M151.381 74.59C148.864 74.59 146.602 74.177 144.596 73.351C142.59 72.4857 140.879 71.3057 139.463 69.811C138.086 68.3163 137.024 66.6053 136.277 64.678C135.53 62.7507 135.156 60.725 135.156 58.601C135.156 56.4377 135.53 54.3923 136.277 52.465C137.024 50.5377 138.086 48.8267 139.463 47.332C140.879 45.8373 142.59 44.677 144.596 43.851C146.602 42.9857 148.864 42.553 151.381 42.553C153.898 42.553 156.14 42.9857 158.107 43.851C160.113 44.677 161.824 45.8373 163.24 47.332C164.656 48.8267 165.718 50.5377 166.426 52.465C167.173 54.3923 167.547 56.4377 167.547 58.601C167.547 60.725 167.173 62.7507 166.426 64.678C165.718 66.6053 164.656 68.3163 163.24 69.811C161.863 71.3057 160.172 72.4857 158.166 73.351C156.16 74.177 153.898 74.59 151.381 74.59ZM143.298 58.601C143.298 60.4103 143.652 62.023 144.36 63.439C145.068 64.8157 146.032 65.8973 147.251 66.684C148.47 67.4707 149.847 67.864 151.381 67.864C152.876 67.864 154.233 67.4707 155.452 66.684C156.671 65.858 157.635 64.7567 158.343 63.38C159.09 61.964 159.464 60.3513 159.464 58.542C159.464 56.772 159.09 55.179 158.343 53.763C157.635 52.347 156.671 51.2457 155.452 50.459C154.233 49.6723 152.876 49.279 151.381 49.279C149.847 49.279 148.47 49.692 147.251 50.518C146.032 51.3047 145.068 52.406 144.36 53.822C143.652 55.1987 143.298 56.7917 143.298 58.601Z" fill="#010119"/>
<path d="M186.689 74.59C184.172 74.59 181.91 74.177 179.904 73.351C177.898 72.4857 176.187 71.3057 174.771 69.811C173.355 68.277 172.254 66.5463 171.467 64.619C170.72 62.6917 170.346 60.666 170.346 58.542C170.346 55.6313 170.995 52.9763 172.293 50.577C173.631 48.1383 175.519 46.1913 177.957 44.736C180.396 43.2807 183.287 42.553 186.63 42.553C189.974 42.553 192.845 43.2807 195.244 44.736C197.644 46.1913 199.433 48.099 200.613 50.459L192.884 52.819C192.216 51.6783 191.331 50.813 190.229 50.223C189.128 49.5937 187.909 49.279 186.571 49.279C185.077 49.279 183.7 49.6723 182.441 50.459C181.222 51.2063 180.258 52.288 179.55 53.704C178.842 55.0807 178.488 56.6933 178.488 58.542C178.488 60.3513 178.842 61.964 179.55 63.38C180.298 64.7567 181.281 65.858 182.5 66.684C183.72 67.4707 185.077 67.864 186.571 67.864C187.515 67.864 188.4 67.7067 189.226 67.392C190.092 67.0773 190.859 66.6447 191.527 66.094C192.196 65.5433 192.688 64.914 193.002 64.206L200.731 66.566C200.023 68.1 198.981 69.4767 197.604 70.696C196.267 71.9153 194.674 72.879 192.825 73.587C191.016 74.2557 188.971 74.59 186.689 74.59Z" fill="#010119"/>
<path d="M226.128 74L217.101 60.666L212.912 64.796V74H205.006V30.93H212.912V57.008L225.361 43.143H233.739L222.234 56.241L234.565 74H226.128Z" fill="#010119"/>
<path d="M261.019 74.295C257.676 74.295 254.824 73.7443 252.464 72.643C250.143 71.5023 248.255 69.9487 246.8 67.982C245.384 66.0153 244.342 63.793 243.673 61.315C243.004 58.7977 242.67 56.182 242.67 53.468V32.11H250.812V53.468C250.812 55.1987 250.969 56.89 251.284 58.542C251.638 60.1547 252.208 61.61 252.995 62.908C253.782 64.206 254.824 65.2287 256.122 65.976C257.42 66.7233 259.033 67.097 260.96 67.097C262.927 67.097 264.559 66.7233 265.857 65.976C267.194 65.1893 268.237 64.147 268.984 62.849C269.771 61.551 270.341 60.0957 270.695 58.483C271.049 56.831 271.226 55.1593 271.226 53.468V32.11H279.309V53.468C279.309 56.3393 278.955 59.0337 278.247 61.551C277.578 64.0683 276.497 66.2907 275.002 68.218C273.547 70.106 271.659 71.6007 269.338 72.702C267.017 73.764 264.244 74.295 261.019 74.295Z" fill="url(#paint8_linear_3572_320254)"/>
<path d="M286.92 74V32.11H304.679C306.606 32.11 308.376 32.5033 309.989 33.29C311.602 34.0767 312.998 35.1387 314.178 36.476C315.397 37.8133 316.341 39.308 317.01 40.96C317.679 42.612 318.013 44.3033 318.013 46.034C318.013 48.394 317.462 50.636 316.361 52.76C315.26 54.884 313.745 56.6147 311.818 57.952C309.891 59.2893 307.609 59.958 304.974 59.958H295.062V74H286.92ZM295.062 52.819H304.502C305.485 52.819 306.37 52.5437 307.157 51.993C307.944 51.4423 308.573 50.6557 309.045 49.633C309.517 48.571 309.753 47.3713 309.753 46.034C309.753 44.5787 309.478 43.3397 308.927 42.317C308.416 41.2943 307.727 40.5273 306.862 40.016C306.036 39.5047 305.131 39.249 304.148 39.249H295.062V52.819Z" fill="url(#paint9_linear_3572_320254)"/>
<defs>
<clipPath id="paint0_angular_3572_320254_clip_path"><path d="M55.56 74H20.35C20.35 73.93 20.37 73.86 20.38 73.8C22.09 64.1 31.34 57.62 41.05 59.33C48.71 60.68 54.37 66.73 55.56 74ZM77.81 57.61C76.69 56.94 75.54 56.27 74.39 55.63C75.08 61.32 75.44 67.46 75.28 74H66.57C66.8 65.42 66.07 57.58 64.84 50.62C63.99 50.24 63.14 49.87 62.28 49.53C53.02 45.72 43.16 43.12 33.13 42.51C29.32 42.26 25.47 42.16 21.66 42.39C16.67 50.93 12 61.45 8.93 74H0C2.62 62.49 6.51 52.53 10.85 44.05C8.28 44.67 5.74 45.43 3.23 46.35C5.55 41.89 9.8 39.24 14.44 37.53C18.65 30.39 23.06 24.54 27.02 19.96C38.05 7.17002 47.88 1.23002 48.29 0.990017C50.14 -0.119983 52.53 0.300017 53.9 1.98002C54.2 2.35002 61.41 11.3 67.41 27.08C69.48 32.52 71.54 39.22 73.04 46.97C75.62 49.11 77.87 51.65 79.2 54.77C79.78 56.13 80.2 57.57 80.26 59.07C79.38 58.57 78.6 58.07 77.81 57.61ZM62.63 40.59C61.62 36.86 60.51 33.48 59.4 30.51C55.91 21.22 51.92 14.44 49.47 10.73C45.9 13.38 39.83 18.38 33.37 25.92C31.19 28.46 28.86 31.43 26.51 34.81C36.21 33.82 46.08 35.25 55.42 37.91C57.88 38.64 60.29 39.53 62.63 40.58V40.59Z"/></clipPath><radialGradient id="paint1_radial_3572_320254" cx="0" cy="0" r="1" gradientUnits="userSpaceOnUse" gradientTransform="translate(44.5 39.8725) rotate(76.7014) scale(28.2577 19.2863)">
<stop stop-color="#EF0667"/>
<stop offset="1" stop-color="#F30051" stop-opacity="0"/>
</radialGradient>
<radialGradient id="paint2_radial_3572_320254" cx="0" cy="0" r="1" gradientUnits="userSpaceOnUse" gradientTransform="translate(11 35.3725) rotate(43.2101) scale(45.2769 41.0998)">
<stop stop-color="#EF0667"/>
<stop offset="0.2034" stop-color="#F1035C" stop-opacity="0.4"/>
<stop offset="1" stop-color="#F30051" stop-opacity="0"/>
</radialGradient>
<radialGradient id="paint3_radial_3572_320254" cx="0" cy="0" r="1" gradientUnits="userSpaceOnUse" gradientTransform="translate(64.59 -12.7279) rotate(53.427) scale(56.6005 70.0415)">
<stop stop-color="#FFE433"/>
<stop offset="0.841451" stop-color="#FFBE4D" stop-opacity="0"/>
</radialGradient>
<radialGradient id="paint4_radial_3572_320254" cx="0" cy="0" r="1" gradientUnits="userSpaceOnUse" gradientTransform="translate(63.5618 -17.5208) rotate(118.019) scale(49.8805 14.3004)">
<stop offset="0.186164" stop-color="#FFEE33"/>
<stop offset="1" stop-color="#FFB24D" stop-opacity="0"/>
</radialGradient>
<radialGradient id="paint5_radial_3572_320254" cx="0" cy="0" r="1" gradientUnits="userSpaceOnUse" gradientTransform="translate(37.5891 -19.8689) rotate(38.0562) scale(92.5567 26.5354)">
<stop offset="0.186164" stop-color="#FFEE33"/>
<stop offset="1" stop-color="#FFB24D" stop-opacity="0"/>
</radialGradient>
<radialGradient id="paint6_radial_3572_320254" cx="0" cy="0" r="1" gradientUnits="userSpaceOnUse" gradientTransform="translate(21 90.3725) rotate(-98.2759) scale(27.7894 30.2927)">
<stop stop-color="#683FD2"/>
<stop offset="1" stop-color="#683FD2" stop-opacity="0"/>
</radialGradient>
<radialGradient id="paint7_radial_3572_320254" cx="0" cy="0" r="1" gradientUnits="userSpaceOnUse" gradientTransform="translate(25.5 -2.1275) rotate(88.5498) scale(39.5127 23.7281)">
<stop stop-color="#FFAA33" stop-opacity="0.5"/>
<stop offset="1" stop-color="#FF5533" stop-opacity="0"/>
</radialGradient>
<linearGradient id="paint8_linear_3572_320254" x1="242.67" y1="41.4251" x2="283.869" y2="91.5951" gradientUnits="userSpaceOnUse">
<stop stop-color="#FF7700"/>
<stop offset="0.394951" stop-color="#E61BA2"/>
<stop offset="0.56177" stop-color="#C431C4"/>
<stop offset="0.722584" stop-color="#9235D4"/>
<stop offset="1" stop-color="#7857DB"/>
</linearGradient>
<linearGradient id="paint9_linear_3572_320254" x1="242.67" y1="41.4251" x2="283.869" y2="91.5951" gradientUnits="userSpaceOnUse">
<stop stop-color="#FF7700"/>
<stop offset="0.394951" stop-color="#E61BA2"/>
<stop offset="0.56177" stop-color="#C431C4"/>
<stop offset="0.722584" stop-color="#9235D4"/>
<stop offset="1" stop-color="#7857DB"/>
</linearGradient>
</defs>
</svg>
